# xmcd
#
# Track frame offsets: 
#        150
#        4378
#        20453
#        34783
#        49760
#        65378
#        88345
#        106988
#        121669
#        138235
#        153784
#        170708
#        193028
#        210789
#        233432
#        250524
#        272239
#        291776
#        305874
#        321325
#
# Disc length: 4549 seconds
#
# Revision: 0
# Processed by: cddbd v1.5.1PL2 Copyright (c) Steve Scherf et al.
# Submitted via: ExactAudioCopy v0.95b4
#
DISCID=1111c314
DTITLE=Various Artist - Шоферской 16
DYEAR=2004
DGENRE=Шансон
TTITLE0=01-Вступление
TTITLE1=02-Жека-Таксист
TTITLE2=03-Анатолий Днепров-Рыбак
TTITLE3=04-"Белый день"-Китайцы
TTITLE4=05-Александр Дюмин-Сибиряк
TTITLE5=06-Сергей Любавин-Дембель
TTITLE6=07-Руслан Казанцев-Горец
TTITLE7=08-"Воровайки"-Студентки
TTITLE8=09-Геннаий Жаров-Доктор
TTITLE9=10-Илья Олейников-Йог
TTITLE10=11-Таня Тишинская-Стюардесса
TTITLE11=12-Игорь Погорелов-Откинувшийся
TTITLE12=13-Иван Кучин-Сосед
TTITLE13=14-Крестовый Туз-Командировочный
TTITLE14=15-Владимир Черняков-Гаишник
TTITLE15=16-Михаил Шелег-Приезжий
TTITLE16=17-Мила Елисеева-Девочка по вызову
TTITLE17=18-Виктор Королёв-Гуляка
TTITLE18=19-Аня Ушакова, Ильдар Южный-Супруги
TTITLE19=20-Жека-Такси большого города
EXTD=
EXTT0=
EXTT1=
EXTT2=
EXTT3=
EXTT4=
EXTT5=
EXTT6=
EXTT7=
EXTT8=
EXTT9=
EXTT10=
EXTT11=
EXTT12=
EXTT13=
EXTT14=
EXTT15=
EXTT16=
EXTT17=
EXTT18=
EXTT19=
PLAYORDER=
